<?xml version="1.0" encoding="UTF-8"?><svg xmlns="http://www.w3.org/2000/svg" fill="#000000" height="1571.33" viewBox="0 0 2117.57 1571.33" width="2117.57"><g><ellipse cx="1171.13" cy="1510.36" opacity="0.15" rx="842.5" ry="60.97"/><path d="M238.31,1129.18c-1.65.71-3.44,1.6-4.07,3.29a6.58,6.58,0,0,0,.2,3.94c6.22,22.62,25.43,40.45,47.64,48s46.94,5.62,69.05-2.23c15.3-5.42,33.56-13.8,45.51-25.08,13.2-12.46-6.49-21-17.17-25.87a178.79,178.79,0,0,0-90.62-14.9A169.29,169.29,0,0,0,238.31,1129.18Z" fill="#cf2959"/><path d="M309.2,1216c-1.44,1.07-3,2.34-3.22,4.12a6.5,6.5,0,0,0,1.08,3.8c11.13,20.65,33.85,33.72,57.19,36.09s47-5.06,66.79-17.66c13.69-8.72,29.61-21,38.72-34.66,10.07-15.1-11-19-22.54-21.35a178.86,178.86,0,0,0-91.64,5.8A169.69,169.69,0,0,0,309.2,1216Z" fill="#cf2959"/><path d="M322.28,906.42c.79-1.61,1.78-3.36,3.49-3.9a6.5,6.5,0,0,1,3.92.4c22.29,7.34,39.13,27.42,45.56,50s3.25,47.15-5.69,68.84c-6.19,15-15.48,32.83-27.34,44.2-13.1,12.55-20.67-7.54-25-18.45a178.78,178.78,0,0,1-10.34-91.25A169.18,169.18,0,0,1,322.28,906.42Z" fill="#cf2959"/><path d="M388.25,983.53c.69-1.66,1.56-3.47,3.23-4.12a6.49,6.49,0,0,1,3.94.15c22.72,5.89,40.82,24.84,48.69,46.94s6.29,46.85-1.24,69.07c-5.2,15.38-13.32,33.76-24.43,45.87-12.26,13.38-21.11-6.19-26.11-16.8a178.87,178.87,0,0,1-16.2-90.39A169.28,169.28,0,0,1,388.25,983.53Z" fill="#cf2959"/><path d="M459.93,1045.23c.63-1.52,1.42-3.17,3-3.77a6,6,0,0,1,3.61.13c20.82,5.4,37.42,22.77,44.63,43s5.77,42.94-1.13,63.31c-4.77,14.1-12.21,31-22.39,42-11.25,12.26-19.36-5.67-23.94-15.4a164,164,0,0,1-14.85-82.86A155.06,155.06,0,0,1,459.93,1045.23Z" fill="#cf2959"/><path d="M165.41,1060c-1.62.75-3.39,1.7-4,3.4a6.5,6.5,0,0,0,.31,3.93c6.84,22.45,26.54,39.73,48.95,46.66s47.08,4.31,69-4.14c15.15-5.86,33.16-14.74,44.8-26.35,12.84-12.82-7.08-20.83-17.89-25.38a178.82,178.82,0,0,0-91-12.37A169,169,0,0,0,165.41,1060Z" fill="#cf2959"/><path d="M285.9,950.61c-13.61-24.5-34.93-44-58.17-59.65-9.88-6.67-21.59-13-33.17-10.14-5.22,44.33,10.59,90.67,41.81,122.58,9.25,9.45,50,41.59,60.4,24.73C309.39,1007.75,296.15,969.05,285.9,950.61Z" fill="#cf2959"/><path d="M545.15,1220.89a396.6,396.6,0,0,1-65-28.57,196.47,196.47,0,0,0-2.94-132.62c-1.86-4.8-9.67-2.75-7.8,2.1a189.48,189.48,0,0,1,3.55,126.49A483.24,483.24,0,0,1,409.82,1145a6.05,6.05,0,0,0,.38-.85,214.32,214.32,0,0,0-3.15-144.85c-2-5.24-10.55-3-8.51,2.29a206.66,206.66,0,0,1,4,137.47c-1.95-1.63-3.9-3.25-5.82-4.9a629.57,629.57,0,0,1-64.24-64.26,4.41,4.41,0,0,0,1.3-1.78A214.3,214.3,0,0,0,340,923.38c-1.69-5.36-10.34-3.67-8.63,1.74a206.71,206.71,0,0,1-5,137.71c-18.87-22.21-36.51-45.5-53.19-69.4-21.1-30.23-40.75-61.43-59.86-92.95-2.94-4.84-10.33-.05-7.39,4.81,34.37,56.68,70.61,112.53,113.63,163.11a206.72,206.72,0,0,1-135.7,1.13c-5.38-1.83-7.25,6.79-1.94,8.59a214.3,214.3,0,0,0,143.8-2.58,644.41,644.41,0,0,0,66.51,66.3,206.72,206.72,0,0,1-135.75-2.63c-5.32-2-7.43,6.59-2.17,8.54a214.3,214.3,0,0,0,144.88,1.06,5.35,5.35,0,0,0,.87-.4,506.47,506.47,0,0,0,54.29,39.13q4.49,2.79,9.05,5.45a206.69,206.69,0,0,1-134.24,28.72c-5.62-.73-5.77,8.09-.2,8.81a214.33,214.33,0,0,0,141.43-31.47,4.4,4.4,0,0,0,1.35-1.29,413.76,413.76,0,0,0,71.43,31.73C548.6,1231.28,550.48,1222.67,545.15,1220.89Z" fill="#181a44"/><path d="M236.06,1312.26c-1,1-2,2.11-2,3.49a5,5,0,0,0,1.25,2.75c10.82,14.33,29.52,21.59,47.45,20.69s35-9.27,48.49-21.09c9.35-8.19,20-19.3,25.29-30.7,5.87-12.59-10.56-13.12-19.53-13.55a136.8,136.8,0,0,0-68.66,15A129.82,129.82,0,0,0,236.06,1312.26Z" fill="#f0426a"/><path d="M311,1354c-.73,1.17-1.47,2.51-1.13,3.84a5,5,0,0,0,1.84,2.4c13.75,11.54,33.6,14.42,50.88,9.52s32-16.88,42.52-31.43c7.28-10.07,15.13-23.29,17.75-35.59,2.9-13.59-13.23-10.42-22.06-8.83a136.93,136.93,0,0,0-63.55,30A129.52,129.52,0,0,0,311,1354Z" fill="#f0426a"/><path d="M232.87,1130.08c.11-1.37.32-2.89,1.38-3.76a5,5,0,0,1,2.91-.82c17.92-1.07,35.57,8.45,46.52,22.69s15.63,32.62,15.4,50.58c-.16,12.43-1.74,27.72-7,39.16-5.77,12.63-16.83.48-23-6.07a136.93,136.93,0,0,1-33.13-62A129.59,129.59,0,0,1,232.87,1130.08Z" fill="#f0426a"/><path d="M301.58,1166.3c0-1.37.13-2.9,1.13-3.84a4.9,4.9,0,0,1,2.85-1c17.82-2.23,36.05,6.14,47.89,19.64s17.71,31.55,18.63,49.48c.65,12.41.06,27.78-4.42,39.53-4.94,13-16.77,1.56-23.32-4.57a137,137,0,0,1-37.06-59.73A129.56,129.56,0,0,1,301.58,1166.3Z" fill="#f0426a"/><path d="M370,1190c0-1.26.11-2.66,1-3.52a4.54,4.54,0,0,1,2.61-.93c16.33-2,33,5.63,43.9,18s16.23,28.92,17.08,45.36c.58,11.37.05,25.46-4.06,36.23-4.53,11.9-15.37,1.43-21.37-4.19a125.36,125.36,0,0,1-34-54.75A118.78,118.78,0,0,1,370,1190Z" fill="#f0426a"/><path d="M164.67,1283.64c-.95,1-1.94,2.17-1.87,3.55a5,5,0,0,0,1.33,2.71c11.21,14,30.1,20.76,48,19.36s34.7-10.23,47.88-22.43c9.12-8.44,19.43-19.85,24.42-31.39,5.52-12.74-10.91-12.82-19.89-13a136.83,136.83,0,0,0-68.22,16.9A129.63,129.63,0,0,0,164.67,1283.64Z" fill="#f0426a"/><path d="M219.48,1171.79c-16.61-13.58-37.27-21.41-58.23-26-8.91-2-19-3.13-26.46,2.16a116.67,116.67,0,0,0,64.36,75.38c9.25,4.12,47.29,15.48,50,.54C252.33,1205.81,232,1182,219.48,1171.79Z" fill="#f0426a"/><path d="M480.24,1290.83a303.62,303.62,0,0,1-54.35-1.93,150.33,150.33,0,0,0-39.55-93.53c-2.68-2.89-7.66.78-4.95,3.7a145.08,145.08,0,0,1,38.27,89,370.44,370.44,0,0,1-57.13-13,3.48,3.48,0,0,0,0-.73,164,164,0,0,0-43.15-102.14c-2.92-3.16-8.35.85-5.4,4a158.29,158.29,0,0,1,41.72,96.67q-2.79-.92-5.55-1.87a482.09,482.09,0,0,1-63.85-27.56,3.37,3.37,0,0,0,.42-1.63,164,164,0,0,0-36.47-104.72c-2.71-3.34-8.39.3-5.65,3.67A158.18,158.18,0,0,1,280,1240.19c-19.71-10.47-38.84-22.06-57.46-34.35-23.55-15.55-46.34-32.19-68.84-49.21-3.46-2.62-7.36,2.88-3.9,5.5,40.47,30.62,82,60.12,126.94,83.95a158.28,158.28,0,0,1-96.25,39.12c-4.33.22-3.24,6.87,1.05,6.66a164.09,164.09,0,0,0,101.57-42.45,493.14,493.14,0,0,0,66.08,28.38,158.31,158.31,0,0,1-97.35,36.46c-4.34.1-3.43,6.78.86,6.69a164.06,164.06,0,0,0,103.37-40.17,4.93,4.93,0,0,0,.5-.53,388.09,388.09,0,0,0,49.67,12.5q4,.72,8,1.33a158.2,158.2,0,0,1-87.4,58.34c-4.21,1.07-1.82,7.38,2.35,6.32a164.08,164.08,0,0,0,91.71-62.33,3.59,3.59,0,0,0,.59-1.28,316.86,316.86,0,0,0,59.78,2.37C485.63,1297.24,484.53,1290.59,480.24,1290.83Z" fill="#181a44"/><path d="M958.26,1380.09a349.68,349.68,0,0,0,77.37-32.08l66.11,66.11a23.47,23.47,0,0,0,33.09,0l101.27-101.28a23.45,23.45,0,0,0,0-33.09L1170,1213.64a350.16,350.16,0,0,0,32.08-77.37h93.46a23.48,23.48,0,0,0,23.41-23.4V969.65a23.48,23.48,0,0,0-23.41-23.4h-93.46A349.73,349.73,0,0,0,1170,868.87l66.1-66.1a23.45,23.45,0,0,0,0-33.09L1134.83,668.4a23.46,23.46,0,0,0-33.09,0l-66.12,66.11a349.48,349.48,0,0,0-77.37-32.08V609a23.46,23.46,0,0,0-23.39-23.4H791.64A23.48,23.48,0,0,0,768.23,609v93.47a349.37,349.37,0,0,0-77.36,32.07l-66.11-66.1a23.46,23.46,0,0,0-33.1,0L490.39,769.68a23.47,23.47,0,0,0,0,33.09l66.1,66.11a350.18,350.18,0,0,0-32.09,77.37H431a23.47,23.47,0,0,0-23.4,23.4v143.22a23.47,23.47,0,0,0,23.4,23.4h93.46a349.53,349.53,0,0,0,32.07,77.38l-66.1,66.1a23.48,23.48,0,0,0,0,33.1l101.28,101.27a23.47,23.47,0,0,0,33.09,0L690.87,1348a349.83,349.83,0,0,0,77.36,32.09v93.46a23.48,23.48,0,0,0,23.41,23.4H934.86a23.47,23.47,0,0,0,23.4-23.4v-93.46Zm-95-155.55C762,1224.54,680,1142.48,680,1041.26S762,858,863.25,858s183.27,82,183.27,183.27S964.46,1224.54,863.25,1224.54Z" fill="#f18a00" fill-rule="evenodd"/><path d="M958.26,1380.09a349.68,349.68,0,0,0,77.37-32.08l66.11,66.11a23.47,23.47,0,0,0,33.09,0l101.27-101.28a23.45,23.45,0,0,0,0-33.09L1170,1213.64a350.16,350.16,0,0,0,32.08-77.37h93.46a23.48,23.48,0,0,0,23.41-23.4V969.65a23.48,23.48,0,0,0-23.41-23.4h-93.46A349.73,349.73,0,0,0,1170,868.87l66.1-66.1a23.45,23.45,0,0,0,0-33.09L1134.83,668.4a23.46,23.46,0,0,0-33.09,0l-66.12,66.11a349.48,349.48,0,0,0-77.37-32.08V609a23.46,23.46,0,0,0-23.39-23.4H791.64A23.48,23.48,0,0,0,768.23,609v93.47a349.37,349.37,0,0,0-77.36,32.07l-66.11-66.1a23.46,23.46,0,0,0-33.1,0L490.39,769.68a23.47,23.47,0,0,0,0,33.09l66.1,66.11a350.18,350.18,0,0,0-32.09,77.37H431a23.47,23.47,0,0,0-23.4,23.4v143.22a23.47,23.47,0,0,0,23.4,23.4h93.46a349.53,349.53,0,0,0,32.07,77.38l-66.1,66.1a23.48,23.48,0,0,0,0,33.1l101.28,101.27a23.47,23.47,0,0,0,33.09,0L690.87,1348a349.83,349.83,0,0,0,77.36,32.09v93.46a23.48,23.48,0,0,0,23.41,23.4H934.86a23.47,23.47,0,0,0,23.4-23.4v-93.46Zm-95-155.55C762,1224.54,680,1142.48,680,1041.26S762,858,863.25,858s183.27,82,183.27,183.27S964.46,1224.54,863.25,1224.54Z" fill="#4640cc" fill-rule="evenodd"/><path d="M863.25,1250.28a209,209,0,1,0-147.8-61.22,208.4,208.4,0,0,0,147.8,61.22Zm156.45-52.56a221.26,221.26,0,1,1,64.81-156.46A220.55,220.55,0,0,1,1019.7,1197.72Z" fill="#181a44" fill-rule="evenodd"/><path d="M863.25,1357.36a316.1,316.1,0,1,0-223.52-92.59,315.12,315.12,0,0,0,223.52,92.59Zm232.17-83.93a328.33,328.33,0,1,1,96.17-232.17A327.3,327.3,0,0,1,1095.42,1273.43Z" fill="#181a44" fill-rule="evenodd"/><path d="M1514.25,1001.58a242,242,0,0,0,57.89.95l23.72,60.1a16.22,16.22,0,0,0,21,9.11l92.08-36.35a16.22,16.22,0,0,0,9.11-21L1694.3,954.3a241.69,241.69,0,0,0,41.63-40.23l59.26,25.72a16.23,16.23,0,0,0,21.28-8.4l39.41-90.81a16.23,16.23,0,0,0-8.4-21.28l-59.26-25.71a241.47,241.47,0,0,0,1-57.89L1849.28,712a16.22,16.22,0,0,0,9.1-21L1822,598.91a16.23,16.23,0,0,0-21-9.1l-60.11,23.73a241.73,241.73,0,0,0-40.23-41.64l25.72-59.26a16.21,16.21,0,0,0-8.39-21.27L1627.23,452a16.23,16.23,0,0,0-21.28,8.4l-25.72,59.26a241.38,241.38,0,0,0-57.88-1l-23.73-60.11a16.22,16.22,0,0,0-21-9.11l-92.08,36.35a16.21,16.21,0,0,0-9.1,21l23.72,60.11a242,242,0,0,0-41.64,40.22l-59.25-25.71a16.23,16.23,0,0,0-21.28,8.4l-39.41,90.81a16.23,16.23,0,0,0,8.4,21.28l59.26,25.71a242,242,0,0,0-1,57.89l-60.1,23.72a16.22,16.22,0,0,0-9.11,21l36.35,92.08a16.21,16.21,0,0,0,21,9.1l60.11-23.73a242,242,0,0,0,40.22,41.63l-25.71,59.26a16.21,16.21,0,0,0,8.4,21.28l90.8,39.41a16.22,16.22,0,0,0,21.28-8.4l25.72-59.25ZM1496.81,876.8A126.68,126.68,0,1,1,1663.45,811,126.68,126.68,0,0,1,1496.81,876.8Z" fill="#f18a00" fill-rule="evenodd"/><path d="M1514.25,1001.58a242,242,0,0,0,57.89.95l23.72,60.1a16.22,16.22,0,0,0,21,9.11l92.08-36.35a16.22,16.22,0,0,0,9.11-21L1694.3,954.3a241.69,241.69,0,0,0,41.63-40.23l59.26,25.72a16.23,16.23,0,0,0,21.28-8.4l39.41-90.81a16.23,16.23,0,0,0-8.4-21.28l-59.26-25.71a241.47,241.47,0,0,0,1-57.89L1849.28,712a16.22,16.22,0,0,0,9.1-21L1822,598.91a16.23,16.23,0,0,0-21-9.1l-60.11,23.73a241.73,241.73,0,0,0-40.23-41.64l25.72-59.26a16.21,16.21,0,0,0-8.39-21.27L1627.23,452a16.23,16.23,0,0,0-21.28,8.4l-25.72,59.26a241.38,241.38,0,0,0-57.88-1l-23.73-60.11a16.22,16.22,0,0,0-21-9.11l-92.08,36.35a16.21,16.21,0,0,0-9.1,21l23.72,60.11a242,242,0,0,0-41.64,40.22l-59.25-25.71a16.23,16.23,0,0,0-21.28,8.4l-39.41,90.81a16.23,16.23,0,0,0,8.4,21.28l59.26,25.71a242,242,0,0,0-1,57.89l-60.1,23.72a16.22,16.22,0,0,0-9.11,21l36.35,92.08a16.21,16.21,0,0,0,21,9.1l60.11-23.73a242,242,0,0,0,40.22,41.63l-25.71,59.26a16.21,16.21,0,0,0,8.4,21.28l90.8,39.41a16.22,16.22,0,0,0,21.28-8.4l25.72-59.25ZM1496.81,876.8A126.68,126.68,0,1,1,1663.45,811,126.68,126.68,0,0,1,1496.81,876.8Z" fill="#4640cc" fill-rule="evenodd"/><path d="M1489.73,893.12a144.46,144.46,0,1,0-76.87-79.48,144,144,0,0,0,76.87,79.48Zm113.66,9.73a152.95,152.95,0,1,1,84.14-81.37A152.46,152.46,0,0,1,1603.39,902.85Z" fill="#181a44" fill-rule="evenodd"/><path d="M1460.26,961A218.49,218.49,0,1,0,1344,840.81,217.84,217.84,0,0,0,1460.26,961Zm170.31,10.67A226.94,226.94,0,1,1,1755.43,851,226.22,226.22,0,0,1,1630.57,971.69Z" fill="#181a44" fill-rule="evenodd"/><path d="M1413.74,1378a121,121,0,0,0,28.94.47l11.86,30a8.12,8.12,0,0,0,10.49,4.56l46-18.18a8.11,8.11,0,0,0,4.55-10.49l-11.86-30.05a121,121,0,0,0,20.81-20.12l29.63,12.86a8.11,8.11,0,0,0,10.64-4.2l19.7-45.4a8.11,8.11,0,0,0-4.2-10.64L1550.73,1274a121,121,0,0,0,.47-28.94l30-11.86a8.13,8.13,0,0,0,4.56-10.5l-18.18-46a8.11,8.11,0,0,0-10.49-4.55L1527.08,1184a120.59,120.59,0,0,0-20.11-20.81l12.86-29.63a8.11,8.11,0,0,0-4.2-10.64l-45.4-19.7a8.1,8.1,0,0,0-10.64,4.19L1446.73,1137a121,121,0,0,0-28.94-.47l-11.86-30a8.13,8.13,0,0,0-10.5-4.56l-46,18.18a8.11,8.11,0,0,0-4.55,10.49l11.86,30.05a121.39,121.39,0,0,0-20.82,20.11l-29.62-12.85a8.11,8.11,0,0,0-10.64,4.2l-19.71,45.4a8.11,8.11,0,0,0,4.2,10.64l29.63,12.86a121,121,0,0,0-.47,28.94l-30,11.86a8.13,8.13,0,0,0-4.56,10.5l18.18,46a8.11,8.11,0,0,0,10.49,4.55l30.05-11.87a120.72,120.72,0,0,0,20.12,20.82l-12.86,29.63a8.11,8.11,0,0,0,4.2,10.64l45.4,19.7a8.11,8.11,0,0,0,10.64-4.2l12.86-29.62Zm-8.72-62.39a63.34,63.34,0,1,1,83.32-32.89A63.34,63.34,0,0,1,1405,1315.59Z" fill="#f18a00" fill-rule="evenodd"/><path d="M1413.74,1378a121,121,0,0,0,28.94.47l11.86,30a8.12,8.12,0,0,0,10.49,4.56l46-18.18a8.11,8.11,0,0,0,4.55-10.49l-11.86-30.05a121,121,0,0,0,20.81-20.12l29.63,12.86a8.11,8.11,0,0,0,10.64-4.2l19.7-45.4a8.11,8.11,0,0,0-4.2-10.64L1550.73,1274a121,121,0,0,0,.47-28.94l30-11.86a8.13,8.13,0,0,0,4.56-10.5l-18.18-46a8.11,8.11,0,0,0-10.49-4.55L1527.08,1184a120.59,120.59,0,0,0-20.11-20.81l12.86-29.63a8.11,8.11,0,0,0-4.2-10.64l-45.4-19.7a8.1,8.1,0,0,0-10.64,4.19L1446.73,1137a121,121,0,0,0-28.94-.47l-11.86-30a8.13,8.13,0,0,0-10.5-4.56l-46,18.18a8.11,8.11,0,0,0-4.55,10.49l11.86,30.05a121.39,121.39,0,0,0-20.82,20.11l-29.62-12.85a8.11,8.11,0,0,0-10.64,4.2l-19.71,45.4a8.11,8.11,0,0,0,4.2,10.64l29.63,12.86a121,121,0,0,0-.47,28.94l-30,11.86a8.13,8.13,0,0,0-4.56,10.5l18.18,46a8.11,8.11,0,0,0,10.49,4.55l30.05-11.87a120.72,120.72,0,0,0,20.12,20.82l-12.86,29.63a8.11,8.11,0,0,0,4.2,10.64l45.4,19.7a8.11,8.11,0,0,0,10.64-4.2l12.86-29.62Zm-8.72-62.39a63.34,63.34,0,1,1,83.32-32.89A63.34,63.34,0,0,1,1405,1315.59Z" fill="#cf2959" fill-rule="evenodd"/><path d="M1401.48,1323.75A72.22,72.22,0,1,0,1363,1284a72.05,72.05,0,0,0,38.44,39.74Zm56.83,4.86a76.46,76.46,0,1,1,42.07-40.68A76.2,76.2,0,0,1,1458.31,1328.61Z" fill="#181a44" fill-rule="evenodd"/><path d="M1386.75,1357.7a109.25,109.25,0,1,0-58.13-60.11,108.94,108.94,0,0,0,58.13,60.11Zm85.15,5.33a113.46,113.46,0,1,1,62.43-60.37A113.11,113.11,0,0,1,1471.9,1363Z" fill="#181a44" fill-rule="evenodd"/><path d="M480.57,955.22a195.79,195.79,0,0,0,46.75.77l19.16,48.54a13.1,13.1,0,0,0,16.95,7.35l74.36-29.35a13.1,13.1,0,0,0,7.36-16.95L626,917a195.47,195.47,0,0,0,33.62-32.48l47.86,20.77a13.09,13.09,0,0,0,17.18-6.79l31.83-73.34A13.1,13.1,0,0,0,749.7,808l-47.86-20.77a195.27,195.27,0,0,0,.77-46.75l48.54-19.16a13.09,13.09,0,0,0,7.35-17L729.15,630a13.1,13.1,0,0,0-16.95-7.36l-48.55,19.16a195.47,195.47,0,0,0-32.48-33.62l20.77-47.86a13.1,13.1,0,0,0-6.78-17.18l-73.34-31.83a13.11,13.11,0,0,0-17.19,6.78L533.86,566a195.27,195.27,0,0,0-46.75-.76L468,516.66A13.1,13.1,0,0,0,451,509.31l-74.36,29.35a13.11,13.11,0,0,0-7.36,17l19.16,48.54a195.17,195.17,0,0,0-33.62,32.49L307,615.87a13.09,13.09,0,0,0-17.18,6.79L258,696a13.1,13.1,0,0,0,6.78,17.18L312.59,734a195.27,195.27,0,0,0-.77,46.75l-48.54,19.16a13.1,13.1,0,0,0-7.35,16.95l29.35,74.37a13.1,13.1,0,0,0,17,7.35l48.55-19.17A195.54,195.54,0,0,0,383.26,913l-20.77,47.86A13.09,13.09,0,0,0,369.28,978l73.34,31.83a13.1,13.1,0,0,0,17.18-6.78l20.77-47.86ZM466.49,854.45a102.31,102.31,0,1,1,134.58-53.13A102.32,102.32,0,0,1,466.49,854.45Z" fill="#f18a00" fill-rule="evenodd"/><path d="M480.57,955.22a195.79,195.79,0,0,0,46.75.77l19.16,48.54a13.1,13.1,0,0,0,16.95,7.35l74.36-29.35a13.1,13.1,0,0,0,7.36-16.95L626,917a195.47,195.47,0,0,0,33.62-32.48l47.86,20.77a13.09,13.09,0,0,0,17.18-6.79l31.83-73.34A13.1,13.1,0,0,0,749.7,808l-47.86-20.77a195.27,195.27,0,0,0,.77-46.75l48.54-19.16a13.09,13.09,0,0,0,7.35-17L729.15,630a13.1,13.1,0,0,0-16.95-7.36l-48.55,19.16a195.47,195.47,0,0,0-32.48-33.62l20.77-47.86a13.1,13.1,0,0,0-6.78-17.18l-73.34-31.83a13.11,13.11,0,0,0-17.19,6.78L533.86,566a195.27,195.27,0,0,0-46.75-.76L468,516.66A13.1,13.1,0,0,0,451,509.31l-74.36,29.35a13.11,13.11,0,0,0-7.36,17l19.16,48.54a195.17,195.17,0,0,0-33.62,32.49L307,615.87a13.09,13.09,0,0,0-17.18,6.79L258,696a13.1,13.1,0,0,0,6.78,17.18L312.59,734a195.27,195.27,0,0,0-.77,46.75l-48.54,19.16a13.1,13.1,0,0,0-7.35,16.95l29.35,74.37a13.1,13.1,0,0,0,17,7.35l48.55-19.17A195.54,195.54,0,0,0,383.26,913l-20.77,47.86A13.09,13.09,0,0,0,369.28,978l73.34,31.83a13.1,13.1,0,0,0,17.18-6.78l20.77-47.86ZM466.49,854.45a102.31,102.31,0,1,1,134.58-53.13A102.32,102.32,0,0,1,466.49,854.45Z" fill="#02b3b7" fill-rule="evenodd"/><path d="M460.77,867.63a116.67,116.67,0,1,0-62.09-64.2,116.32,116.32,0,0,0,62.09,64.2Zm91.8,7.85a123.52,123.52,0,1,1,67.95-65.71A123.1,123.1,0,0,1,552.57,875.48Z" fill="#181a44" fill-rule="evenodd"/><path d="M437,922.46a176.43,176.43,0,1,0-93.89-97.08A175.89,175.89,0,0,0,437,922.46Zm137.54,8.62a183.28,183.28,0,1,1,100.85-97.52A182.67,182.67,0,0,1,574.51,931.08Z" fill="#181a44" fill-rule="evenodd"/><g data-name="Layer 1"><path d="M600.93,1073.6s-.17,25.62-.17,26.21,8.09,6.38,12.51,6.67,7.91-6.49,7.91-6.49l-.53-30.76Z" fill="#eda27c"/><path d="M585.93,1040.73s-1.64,36.87,23.34,37,21.62-37.73,21.62-39.8S593,1025.05,585.93,1040.73Z" fill="#f7c4a3"/><path d="M587.6,1050.36s-3.82-2-2.86,3.9,4.47,1.84,4.47,1.84Z" fill="#ffe4a1"/><path d="M629.43,1050.36s3.82-2,2.86,3.9-4.47,1.84-4.47,1.84Z" fill="#ffe4a1"/><path d="M587.36,1056.46s-9.74-16-2.34-26.94,11.71-9.27,24.71-13.25,17.26-4.76,23-9.8,10.61,23.27-2.55,48c0,0-.05-14.69-7.51-13.37s-16.83.82-22.2-1.15S587.84,1039.05,587.36,1056.46Z" fill="#181a44"/><path d="M542,1113s-29.39-13.88-34.14-21.82,19.54-60.41,27.91-75.24c0,0-2.87-16.71,6.53-25.17s1.14,9.06,2.12,15.75,4.85,2.17,7.37,1.87-1.52,5.58-3.73,7.5-17.07,48.66-18.14,61.91,17.89,13,21.42,13.84Z" fill="#fed4b8"/><path d="M678.81,1081.47s26.43-18.92,29.68-27.59-30-55.93-41-69c0,0-.16-17-10.92-23.59s.5,9.11.72,15.88-4.37,3-6.91,3.15,2.5,5.22,5,6.71,25.52,44.81,28.95,57.66-15.28,16-18.59,17.46Z" fill="#fed4b8"/><path d="M660.71,1465.46s-3.55,5.07-3.56,16.47c0,9.76,41.71,7.08,48.83,7.24,10.09.21,5.64-9.7-4-11.74S683.44,1472,682.4,1466Z" fill="#181a44"/><path d="M610.62,1463.88s3.55,5.08,3.55,16.47c0,9.76-41.7,7.09-48.82,7.24-10.09.21-5.65-9.7,4-11.74s18.54-5.42,19.59-11.4Z" fill="#181a44"/><path d="M581.65,1246.53s-9.85,63.81-11.7,106.23,19.48,114.83,19.48,114.83l21.69-.57s-6.24-90.87-3.66-116.6,23.61-75.68,23.61-75.68,24.41,58.89,27.12,68.64,1.89,114.9.8,126.06h22.5s16.44-82.79,20.53-111.12-30.18-112.91-34.91-120.4Z" fill="#292a72"/><path d="M548.66,1088.11s47.55.12,52.1,0c0,0,1.33,11.4,12.46,10.45,10.15-.88,6.55-10.45,8-12.64a24.91,24.91,0,0,1,2.22-2.81c4.67-3.59,50-26.21,50-26.21s7.66,19.51,9.34,26.09l-32.25,28.32s20.87,99.22,25.64,131.9c0,0-96.32,3.06-100.15,3.25,0,0,1.06-98.1,2-118.21L539,1114.07Z" fill="#9792ff"/></g><path d="M859.14,542.59s-61-2.45-75.13,4.55-10.89,25.65-4.36,49,18.51,88.13,18.51,88.13l31.58-9.33s-16.33-78.8-9.8-87l83.85-1.16s5.45,19.32-10.89,88.12l30.49,7s19.6-78.8,25.05-103.29-6.54-38.22-40.3-37.18S859.14,542.59,859.14,542.59Z" fill="#292a72"/><path d="M941.9,486.51s2.18,15.15,0,21S909.24,539,909.24,539l-4.36-26.82S919.1,499,919.61,493.93,941.9,486.51,941.9,486.51Z" fill="#fed4b8"/><path d="M784,488.84s-4.36,17.49-3.27,24.48,28.31,28,28.31,28v-28a18.29,18.29,0,0,1-5-15.91C805.79,487.67,784,488.84,784,488.84Z" fill="#fed4b8"/><path d="M851.52,416.54s-49-4.66-57.71,23.32a505.75,505.75,0,0,0-13.07,51.31l26.14,7,6.53-19.83,1.09,65.3,99.09-2.33-3.27-63,6.54,16.33,26.13-7s-6.53-43.14-17.42-56S885.28,417.71,851.52,416.54Z" fill="#9792ff"/><path d="M843.9,417.71v14a19.09,19.09,0,0,0,7,14.93,16.61,16.61,0,0,0,10.45,3.73h0a16.55,16.55,0,0,0,9.74-3.19,19,19,0,0,0,7.69-15.47v-14Z" fill="#d3b39c"/><path d="M835.73,395s-6.53,1.17-4.35,9.33,4.35,7,4.35,7,5.45,29.15,24,29.15,26.13-17.49,26.13-28c0,0,4.36-1.16,5.45-9.33s-4.36-8.16-4.36-8.16,4.36-22.15-27.22-21S835.73,395,835.73,395Z" fill="#fed4b8"/><path d="M837.37,402.55s-9.8-21-6.54-36.15,28.31-15.16,34.85-24.48c0,0,41.38,2.33,20.69,60.63,0,0,2.18-15.16-9.8-17.49s-25.05-4.66-26.14-7A25.73,25.73,0,0,0,837.37,402.55Z" fill="#181a44"/><path d="M804.13 495.89L809.05 563.47 914.13 562.88 919.13 495.2 804.13 495.89z" fill="#f0426a"/><path d="M797.79,682.52s-2.89,7.55-11.6,18-9.8,17.49,2.17,16.33,47.92-22.16,46.83-29.15-5.88-14.68-5.88-14.68Z" fill="#181a44"/><path d="M923.65,681.35a96.17,96.17,0,0,0,12.69,19.21c8.71,10.5,9.8,17.49-2.18,16.33s-47.91-22.16-46.82-29.15,5.88-14.68,5.88-14.68Z" fill="#181a44"/><g data-name="Layer 1"><path d="M1540.58,1135.38a13.19,13.19,0,0,1-11-12.15c-1-10.81.64-24.48-9.37-25.55s-5.46,16.52-5.9,23.31-4.63,31.27,16.67,30.29Z" fill="#fed4b8"/><path d="M1612.77,1142.55s-74-7-76.49-7.94l-5.29,16.67s44.1,21.19,74.15,23.21S1612.77,1142.55,1612.77,1142.55Z" fill="#8282db"/><path d="M1673.13,1130.65s19.8,23.79-7.85,38.2-47.07,6.94-51.06-9.52-10-33.83,6.94-39.1S1661,1122.16,1673.13,1130.65Z" fill="#fed4b8"/><path d="M1679.3,1140.16s-4.37-30.61-25.47-40.12-49.9,13.37-62.76,5.27c0,0-.52,35.88,19.81,32.54,0,0,11.06-15.18,25.46,6.69,0,0-.13-12.86,7.59-12.48s10.42,10.81,18.52,9.78S1679.3,1140.16,1679.3,1140.16Z" fill="#181a44"/><path d="M1542.5,1175.65a13.19,13.19,0,0,1-11-12.15c-1-10.81.64-24.48-9.37-25.55s-5.9,23.32-5.9,23.32-4.63,31.26,16.67,30.28Z" fill="#fed4b8"/><path d="M1867.47,1473.38s3.27,10.6,2.11,17.53-38.69,17-51.1,17.08-26.06-11-7.94-20.7,27.91-17.06,28.51-19.35Z" fill="#181a44"/><path d="M1781.66,1448.83s5.13,16.36,5.22,26-23,5-33.68,5.35-29.91,5.69-31.68-6,33.31-9.43,30.81-26.53Z" fill="#181a44"/><path d="M1814.48,1249s22.11,19.42,25.25,84.15,34.61,68.83,27.74,140.2l-28.42-5.44s.81-37-27-72.47-29.29-74.88-29.29-74.88-38,38.57-44.28,58.55c0,0,32.91,29.7,44.36,74.82l-32.43,1.62s-23.89-39.1-46.57-60.63,18.23-82.28,29-100.33S1814.48,1249,1814.48,1249Z" fill="#292a72"/><path d="M1822.33,1253.21s-34.86,35.91-89.43,41.41c0,0-63.45-74.45-79.53-102.37,0,0-93.35,5.38-121.18-.07l2.42-21.38s98.22-8.27,123.84-14.52,14.82-26.19,36.35-19.65S1796.51,1219.64,1822.33,1253.21Z" fill="#9792ff"/></g><path d="M1178.76,1346.65c13.49,13.49,11.1,37.74,11.1,37.74s-24.26,2.4-37.75-11.09-11.1-37.76-11.1-37.76S1165.26,1333.15,1178.76,1346.65Z" fill="#f0426a"/><path d="M1141,1335.54l48.85,48.85s-24.26,2.4-37.75-11.09S1141,1335.54,1141,1335.54Z" fill="#cf2959"/><path d="M1206.42,1346.65c-13.49,13.49-11.11,37.74-11.11,37.74s24.27,2.4,37.76-11.09,11.1-37.76,11.1-37.76S1219.92,1333.15,1206.42,1346.65Z" fill="#f0426a"/><path d="M1244.17,1335.54l-48.86,48.85s24.27,2.4,37.76-11.09S1244.17,1335.54,1244.17,1335.54Z" fill="#cf2959"/><path d="M1181.2,1299.53c11.11,11.11,9.15,31.07,9.15,31.07s-20,2-31.08-9.14-9.14-31.08-9.14-31.08S1170.09,1288.42,1181.2,1299.53Z" fill="#f0426a"/><path d="M1150.13,1290.38l40.22,40.22s-20,2-31.08-9.14S1150.13,1290.38,1150.13,1290.38Z" fill="#cf2959"/><path d="M1204,1299.53c-11.11,11.11-9.15,31.07-9.15,31.07s20,2,31.08-9.14,9.14-31.08,9.14-31.08S1215.09,1288.42,1204,1299.53Z" fill="#f0426a"/><path d="M1235.05,1290.38l-40.22,40.22s20,2,31.08-9.14S1235.05,1290.38,1235.05,1290.38Z" fill="#cf2959"/><path d="M1184.3,1262.06c8.09,8.09,6.66,22.62,6.66,22.62s-14.54,1.43-22.63-6.65-6.65-22.63-6.65-22.63S1176.22,1254,1184.3,1262.06Z" fill="#f0426a"/><path d="M1161.68,1255.4l29.28,29.28s-14.54,1.43-22.63-6.65S1161.68,1255.4,1161.68,1255.4Z" fill="#cf2959"/><path d="M1200.88,1262.06c-8.09,8.09-6.66,22.62-6.66,22.62s14.54,1.43,22.63-6.65,6.64-22.63,6.64-22.63S1209,1254,1200.88,1262.06Z" fill="#f0426a"/><path d="M1223.49,1255.4l-29.27,29.28s14.54,1.43,22.63-6.65S1223.49,1255.4,1223.49,1255.4Z" fill="#cf2959"/><path d="M1189.86 1249.6H1195.31V1416.9099999999999H1189.86z" fill="#181a44"/><path d="M1187.75,1235.15c5.84,5.84,4.81,16.34,4.81,16.34s-10.51,1-16.36-4.8-4.8-16.36-4.8-16.36S1181.9,1229.3,1187.75,1235.15Z" fill="#f0426a"/><path d="M1171.4,1230.33l21.16,21.16s-10.51,1-16.36-4.8S1171.4,1230.33,1171.4,1230.33Z" fill="#cf2959"/><path d="M1197.43,1235.15c-5.84,5.84-4.81,16.34-4.81,16.34s10.51,1,16.35-4.8,4.81-16.36,4.81-16.36S1203.28,1229.3,1197.43,1235.15Z" fill="#f0426a"/><path d="M1213.78,1230.33l-21.16,21.16s10.51,1,16.35-4.8S1213.78,1230.33,1213.78,1230.33Z" fill="#cf2959"/><path d="M1218.74 1492.78L1166.44 1492.78 1149.2 1406 1235.98 1406 1218.74 1492.78z" fill="#292a72"/><path d="M1143.88 1406H1241.2900000000002V1411.17H1143.88z" fill="#181a44"/><path d="M452.7,283.16a30.94,30.94,0,1,1-26-35.18A30.93,30.93,0,0,1,452.7,283.16Z" fill="#6858f7"/><path d="M417,294.28a3.39,3.39,0,0,1-.89-.8L405.81,280a3.29,3.29,0,1,1,5.23-4l8,10.5,16.69-16.67a3.29,3.29,0,0,1,4.64,4.66l-19.34,19.31a3.26,3.26,0,0,1-2.54.95A3.2,3.2,0,0,1,417,294.28Z" fill="#ffffff"/><path d="M40.88,1263.32a19.27,19.27,0,1,1-16.21-21.91A19.26,19.26,0,0,1,40.88,1263.32Z" fill="#6858f7"/><path d="M18.65,1270.25a2,2,0,0,1-.55-.5l-6.42-8.39a2,2,0,0,1,3.25-2.49l5,6.54L30.32,1255a2,2,0,1,1,2.89,2.9l-12,12a2.05,2.05,0,0,1-2.52.29Z" fill="#ffffff"/><path d="M1888.89,209.86A19.27,19.27,0,1,1,1872.68,188,19.27,19.27,0,0,1,1888.89,209.86Z" fill="#6858f7"/><path d="M1866.65,216.79a2,2,0,0,1-.55-.5l-6.41-8.39a2,2,0,1,1,3.25-2.49l5,6.54,10.4-10.38a2,2,0,1,1,2.89,2.9l-12,12a2.05,2.05,0,0,1-2.52.29Z" fill="#ffffff"/><path d="M923.94,57.88A19.27,19.27,0,1,1,907.73,36,19.28,19.28,0,0,1,923.94,57.88Z" fill="#6858f7"/><path d="M901.7,64.81a2,2,0,0,1-.55-.5l-6.42-8.4A2,2,0,1,1,898,53.43L903,60l10.4-10.37a2,2,0,1,1,2.89,2.89l-12,12a2,2,0,0,1-2.52.3Z" fill="#ffffff"/><path d="M1947.69,1063.59a29.55,29.55,0,1,1-24.86-33.6A29.54,29.54,0,0,1,1947.69,1063.59Z" fill="#6858f7"/><path d="M1913.59,1074.21a3.41,3.41,0,0,1-.85-.76l-9.84-12.88a3.14,3.14,0,0,1,5-3.81l7.66,10,15.94-15.92a3.14,3.14,0,0,1,4.44,4.45l-18.48,18.44a3.09,3.09,0,0,1-2.42.91A3,3,0,0,1,1913.59,1074.21Z" fill="#ffffff"/><path d="M66.23,696a5.38,5.38,0,0,1-5.37-5.38v-38a5.38,5.38,0,0,1,10.75,0v38A5.38,5.38,0,0,1,66.23,696Z" fill="#f0426a"/><path d="M85.22,677h-38a5.38,5.38,0,1,1,0-10.76h38a5.38,5.38,0,1,1,0,10.76Z" fill="#f0426a"/><path d="M17.88,269.36a4,4,0,0,1-3.95-3.95V237.55a3.95,3.95,0,1,1,7.9,0v27.86A4,4,0,0,1,17.88,269.36Z" fill="#f0426a"/><path d="M31.81,255.43H4a4,4,0,1,1,0-7.9H31.81a4,4,0,0,1,0,7.9Z" fill="#f0426a"/><path d="M2099.69,468.24a4,4,0,0,1-4-3.95V436.43a4,4,0,1,1,7.9,0v27.86A4,4,0,0,1,2099.69,468.24Z" fill="#f0426a"/><path d="M2113.62,454.31h-27.86a3.95,3.95,0,0,1,0-7.9h27.86a3.95,3.95,0,1,1,0,7.9Z" fill="#f0426a"/><path d="M1448.11,35.76a4,4,0,0,1-3.95-3.95V4a3.95,3.95,0,0,1,7.9,0V31.81A4,4,0,0,1,1448.11,35.76Z" fill="#f0426a"/><path d="M1462.05,21.83h-27.87a4,4,0,0,1,0-7.9h27.87a3.95,3.95,0,1,1,0,7.9Z" fill="#f0426a"/><path d="M1179.49,357.09a5,5,0,0,1-5-5V316.76a5,5,0,0,1,10,0v35.33A5,5,0,0,1,1179.49,357.09Z" fill="#f0426a"/><path d="M1197.15,339.43h-35.32a5,5,0,1,1,0-10h35.32a5,5,0,1,1,0,10Z" fill="#f0426a"/></g></svg>